<svg width="20" height="21" viewBox="0 0 20 21" fill="none" xmlns="http://www.w3.org/2000/svg">
<g clip-path="url(#clip0)">
<path d="M16.6667 7.68884H9.16667C8.24619 7.68884 7.5 8.43503 7.5 9.35551V16.8555C7.5 17.776 8.24619 18.5222 9.16667 18.5222H16.6667C17.5871 18.5222 18.3333 17.776 18.3333 16.8555V9.35551C18.3333 8.43503 17.5871 7.68884 16.6667 7.68884Z" stroke="#3485FF" stroke-width="2" stroke-linecap="round" stroke-linejoin="round"/>
<path d="M4.16675 12.6889H3.33341C2.89139 12.6889 2.46746 12.5133 2.1549 12.2007C1.84234 11.8881 1.66675 11.4642 1.66675 11.0222V3.5222C1.66675 3.08017 1.84234 2.65625 2.1549 2.34369C2.46746 2.03112 2.89139 1.85553 3.33341 1.85553H10.8334C11.2754 1.85553 11.6994 2.03112 12.0119 2.34369C12.3245 2.65625 12.5001 3.08017 12.5001 3.5222V4.35553" stroke="#3485FF" stroke-width="2" stroke-linecap="round" stroke-linejoin="round"/>
</g>
<defs>
<clipPath id="clip0">
<rect width="20" height="20" fill="white" transform="translate(0 0.188843)"/>
</clipPath>
</defs>
</svg>
