<svg width="149" height="136" viewBox="0 0 149 136" fill="none" xmlns="http://www.w3.org/2000/svg">
<circle opacity="0.1" cx="81.5" cy="67.6888" r="67.5" fill="url(#paint0_linear)"/>
<path fill-rule="evenodd" clip-rule="evenodd" d="M76.4231 66.6901C64.6435 66.6901 55.0943 75.0687 55.0943 85.4044V85.4521C55.0943 95.7877 64.6435 104.166 76.4231 104.166H107.877C109.052 104.166 110.204 104.083 111.328 103.923L117.422 109.087C117.587 109.228 117.809 109.306 118.039 109.306C118.53 109.306 118.928 108.957 118.928 108.526L118.928 101.462C125.089 98.1802 129.206 92.2379 129.206 85.4521V85.4044C129.206 75.0687 119.656 66.6901 107.877 66.6901H76.4231Z" fill="#1D4885"/>
<path d="M81.5964 21.8538H36.6853C19.8573 21.8538 6.21558 33.8233 6.21558 48.5885C6.21558 63.3537 19.8573 75.3232 36.6853 75.3232H81.5964C98.4244 75.3232 112.066 63.3537 112.066 48.5885C112.066 33.8233 98.4244 21.8538 81.5964 21.8538Z" fill="url(#paint1_linear)"/>
<path fill-rule="evenodd" clip-rule="evenodd" d="M20.895 67.5465V81.5424C20.895 82.1576 21.4634 82.6563 22.1646 82.6563C22.4934 82.6563 22.8095 82.5444 23.0461 82.344L34.7678 72.4204L20.895 67.5465Z" fill="url(#paint2_linear)"/>
<path d="M38.7484 51.9303C41.4655 51.9303 43.668 49.9978 43.668 47.6138C43.668 45.2298 41.4655 43.2972 38.7484 43.2972C36.0314 43.2972 33.8289 45.2298 33.8289 47.6138C33.8289 49.9978 36.0314 51.9303 38.7484 51.9303Z" fill="white"/>
<path d="M58.903 51.9303C61.62 51.9303 63.8226 49.9978 63.8226 47.6138C63.8226 45.2298 61.62 43.2972 58.903 43.2972C56.186 43.2972 53.9834 45.2298 53.9834 47.6138C53.9834 49.9978 56.186 51.9303 58.903 51.9303Z" fill="white"/>
<path d="M79.5334 51.9303C82.2504 51.9303 84.453 49.9978 84.453 47.6138C84.453 45.2298 82.2504 43.2972 79.5334 43.2972C76.8164 43.2972 74.6138 45.2298 74.6138 47.6138C74.6138 49.9978 76.8164 51.9303 79.5334 51.9303Z" fill="white"/>
<defs>
<linearGradient id="paint0_linear" x1="175.583" y1="-204.035" x2="74.4065" y2="149.683" gradientUnits="userSpaceOnUse">
<stop stop-color="#5498FF"/>
<stop offset="0.515625" stop-color="#428EFF"/>
<stop offset="1" stop-color="#297FFF"/>
</linearGradient>
<linearGradient id="paint1_linear" x1="132.909" y1="-59.0332" x2="111.458" y2="89.427" gradientUnits="userSpaceOnUse">
<stop stop-color="#5498FF"/>
<stop offset="0.515625" stop-color="#428EFF"/>
<stop offset="1" stop-color="#297FFF"/>
</linearGradient>
<linearGradient id="paint2_linear" x1="37.4995" y1="44.6888" x2="25.337" y2="83.7286" gradientUnits="userSpaceOnUse">
<stop stop-color="#5498FF"/>
<stop offset="0.515625" stop-color="#428EFF"/>
<stop offset="1" stop-color="#297FFF"/>
</linearGradient>
</defs>
</svg>
