<svg width="20" height="21" viewBox="0 0 20 21" fill="none" xmlns="http://www.w3.org/2000/svg">
<path d="M14.9999 6.85555H14.1666V5.18888C14.1666 2.88888 12.2999 1.02222 9.99992 1.02222C7.69992 1.02222 5.83325 2.88888 5.83325 5.18888V6.85555H4.99992C4.08325 6.85555 3.33325 7.60555 3.33325 8.52222V16.8555C3.33325 17.7722 4.08325 18.5222 4.99992 18.5222H14.9999C15.9166 18.5222 16.6666 17.7722 16.6666 16.8555V8.52222C16.6666 7.60555 15.9166 6.85555 14.9999 6.85555ZM9.99992 14.3555C9.08325 14.3555 8.33325 13.6055 8.33325 12.6889C8.33325 11.7722 9.08325 11.0222 9.99992 11.0222C10.9166 11.0222 11.6666 11.7722 11.6666 12.6889C11.6666 13.6055 10.9166 14.3555 9.99992 14.3555ZM12.5833 6.85555H7.41658V5.18888C7.41658 3.76388 8.57492 2.60555 9.99992 2.60555C11.4249 2.60555 12.5833 3.76388 12.5833 5.18888V6.85555Z" fill="#A5B0C1"/>
</svg>
