<svg id="Layer_1" data-name="Layer 1" xmlns="http://www.w3.org/2000/svg" xmlns:xlink="http://www.w3.org/1999/xlink" viewBox="0 0 165 43.83"><defs><style>.cls-1{fill:url(#linear-gradient);}.cls-2{fill:#fff;}.cls-3{fill:url(#linear-gradient-2);}.cls-4{fill:#fafafa;}</style><linearGradient id="linear-gradient" x1="56" y1="22.5" x2="165" y2="22.5" gradientUnits="userSpaceOnUse"><stop offset="0" stop-color="#5498ff"/><stop offset="0.52" stop-color="#428eff"/><stop offset="1" stop-color="#297fff"/></linearGradient><linearGradient id="linear-gradient-2" x1="47.55" y1="113.71" x2="14.7" y2="-1.13" gradientTransform="matrix(1, 0, 0, -1, 0, 46)" xlink:href="#linear-gradient"/></defs><path class="cls-1" d="M56,30V15h5v3.19a4.26,4.26,0,0,1,1.42-2.53,3.69,3.69,0,0,1,2.42-.91,4.69,4.69,0,0,1,1.16.12v4.49a10.06,10.06,0,0,0-1.33-.1Q61,19.26,61,24.34V30Zm24.68-1.8a8.23,8.23,0,0,1-6.12,2.27,8.34,8.34,0,0,1-6.15-2.27,7.79,7.79,0,0,1-2.31-5.81,7.68,7.68,0,0,1,2.31-5.77,8.34,8.34,0,0,1,6.15-2.27,8.23,8.23,0,0,1,6.12,2.27A7.68,7.68,0,0,1,83,22.39,7.79,7.79,0,0,1,80.68,28.2Zm-6.12-1.83a3.38,3.38,0,0,0,2.65-1.1,4.21,4.21,0,0,0,1-2.88,4.2,4.2,0,0,0-1-2.87,3.78,3.78,0,0,0-5.33,0,4.28,4.28,0,0,0-.95,2.87,4.29,4.29,0,0,0,.95,2.88A3.4,3.4,0,0,0,74.56,26.37Zm16.78,4.1a8.43,8.43,0,0,1-6.26-2.34,8.42,8.42,0,0,1-2.34-6.2,8.31,8.31,0,0,1,2.34-6.16,8.43,8.43,0,0,1,6.26-2.34,9.06,9.06,0,0,1,5.8,1.77A6.7,6.7,0,0,1,99.68,20h-5.1a2.91,2.91,0,0,0-3.2-2.27,3.22,3.22,0,0,0-2.6,1.1,4.63,4.63,0,0,0-.94,3.1,4.6,4.6,0,0,0,.94,3.1,3.19,3.19,0,0,0,2.6,1.1c1.75,0,2.82-.71,3.2-2.13h5.1a6.61,6.61,0,0,1-2.54,4.73A9.16,9.16,0,0,1,91.34,30.47ZM115.58,30H110l-5-6.57V30h-5V8h5V21.26L109.89,15h5.6l-6,7.1Zm14.1-8.39c0,.63,0,1.33-.13,2.39H118.32a2.93,2.93,0,0,0,1,2,3.75,3.75,0,0,0,2.56.82,4.38,4.38,0,0,0,2.84-.84h4.73A5.76,5.76,0,0,1,127,29.08a9,9,0,0,1-5.11,1.39,8.51,8.51,0,0,1-6.13-2.14,7.85,7.85,0,0,1-2.24-5.94,7.76,7.76,0,0,1,2.24-5.87,9.23,9.23,0,0,1,11.71-.15A6.77,6.77,0,0,1,129.68,21.61ZM118.32,21h6.6a3.31,3.31,0,0,0-.86-2.34,3.21,3.21,0,0,0-2.36-.82,3.39,3.39,0,0,0-2.46.89A3.1,3.1,0,0,0,118.32,21Zm19.91,5.64a12.45,12.45,0,0,0,1.77-.1v3.57a18.58,18.58,0,0,1-3.36.27,11.28,11.28,0,0,1-1.52-.1,7,7,0,0,1-1.48-.43,3.76,3.76,0,0,1-1.35-1,5,5,0,0,1-.93-1.71,8.69,8.69,0,0,1-.36-2.64V19h-2V15h2V10h5v5h4v4h-4v5.05a2.86,2.86,0,0,0,.57,2.08A2.39,2.39,0,0,0,138.23,26.64ZM160,15h5V37h-6V29h1V27.85a6.61,6.61,0,0,1-2.12,1.87,6,6,0,0,1-2.87.69,6.57,6.57,0,0,1-5.24-2.24,8.56,8.56,0,0,1-1.92-5.78,8.39,8.39,0,0,1,2-5.74,6.62,6.62,0,0,1,5.23-2.27,5.93,5.93,0,0,1,2.88.69A6.3,6.3,0,0,1,160,17Zm-3.6,11.4a3.3,3.3,0,0,0,2.68-1.13,4.36,4.36,0,0,0,.95-2.88,4.31,4.31,0,0,0-.95-2.84,3.3,3.3,0,0,0-2.68-1.13,3.44,3.44,0,0,0-2.65,1.1,4.2,4.2,0,0,0-1,2.87,4.32,4.32,0,0,0,1,2.91A3.44,3.44,0,0,0,156.4,26.4Z"/><path class="cls-2" d="M146.16,29.4a3,3,0,0,1-2.21.92,3.09,3.09,0,0,1-3.13-3.1,2.93,2.93,0,0,1,.89-2.17,3.06,3.06,0,0,1,2.24-.92,3,3,0,0,1,2.21.92,2.88,2.88,0,0,1,.91,2.17A3,3,0,0,1,146.16,29.4Z"/><rect class="cls-3" width="43.83" height="43.83" rx="7.89"/><path class="cls-4" d="M33.26,32.41H29.35a.31.31,0,0,1-.31-.29s0-.1,0-.15a4.26,4.26,0,0,0-4.46-3.55c-1.49.19-2.72,1.31-4.22,1.48a9,9,0,0,1-2.88-.14A8.33,8.33,0,0,1,15,28.84a9,9,0,0,1-3.74-3.7,8.07,8.07,0,0,1-1-3,10,10,0,0,1,0-2.5A9,9,0,0,1,11.4,16a8.8,8.8,0,0,1,3.66-3.46,8.39,8.39,0,0,1,2.27-.84,9,9,0,0,1,5.25.3,8.8,8.8,0,0,1,3.26,2c2.18,2.08,2.35,5.34,2.41,8.35a.45.45,0,0,1-.53.44,10,10,0,0,0-3.65-.05.51.51,0,0,1-.55-.66c0-.15.07-.3.1-.44.39-2.34-1.21-5-3.57-5.23a4.31,4.31,0,0,0-3.64,1.51,3.77,3.77,0,0,0-1,2.34A4.45,4.45,0,0,0,19.5,25a3.48,3.48,0,0,0,1.35-.19c1.43-.49,2.82-1.21,4.32-1.1,4.51.34,7.68,2.38,8.52,8.17A.44.44,0,0,1,33.26,32.41Z"/></svg>