<svg width="24" height="25" viewBox="0 0 24 25" fill="none" xmlns="http://www.w3.org/2000/svg">
<path d="M3 6.37769H5H21" stroke="#E83F5B" stroke-width="2" stroke-linecap="round" stroke-linejoin="round"/>
<path d="M8 6.37769V4.37769C8 3.84725 8.21071 3.33854 8.58579 2.96347C8.96086 2.5884 9.46957 2.37769 10 2.37769H14C14.5304 2.37769 15.0391 2.5884 15.4142 2.96347C15.7893 3.33854 16 3.84725 16 4.37769V6.37769M19 6.37769V20.3777C19 20.9081 18.7893 21.4168 18.4142 21.7919C18.0391 22.167 17.5304 22.3777 17 22.3777H7C6.46957 22.3777 5.96086 22.167 5.58579 21.7919C5.21071 21.4168 5 20.9081 5 20.3777V6.37769H19Z" stroke="#E83F5B" stroke-width="2" stroke-linecap="round" stroke-linejoin="round"/>
</svg>
